STARTFONT 2.3
FONT -FontForge-Tangerine-Book-R-Normal--36-360-72-72-P-134-ISO10646-1
SIZE 36 72 72  2
FONTBOUNDINGBOX 60 38 -12 -10
COMMENT "Generated by fontforge, http://fontforge.sourceforge.net"
COMMENT "Copyright (c) 2010 by Toshi Omagari. All rights reserved."
STARTPROPERTIES 40
FOUNDRY "FontForge"
FAMILY_NAME "Tangerine"
WEIGHT_NAME "Book"
SLANT "R"
SETWIDTH_NAME "Normal"
ADD_STYLE_NAME ""
PIXEL_SIZE 36
POINT_SIZE 360
RESOLUTION_X 72
RESOLUTION_Y 72
SPACING "P"
AVERAGE_WIDTH 134
CHARSET_REGISTRY "ISO10646"
CHARSET_ENCODING "1"
FONTNAME_REGISTRY ""
CHARSET_COLLECTIONS "ISO10646-1"
BITS_PER_PIXEL 2
FONT_NAME "Tangerine-Regular"
FACE_NAME "Tangerine Regular"
COPYRIGHT "Copyright (c) 2010 by Toshi Omagari. All rights reserved."
FONT_VERSION "1.3"
FONT_ASCENT 27
FONT_DESCENT 9
UNDERLINE_POSITION -4
UNDERLINE_THICKNESS 2
X_HEIGHT 8
CAP_HEIGHT 22
RAW_ASCENT 750
RAW_DESCENT 250
NORM_SPACE 5
RELATIVE_WEIGHT 40
RELATIVE_SETWIDTH 50
SUPERSCRIPT_X 0
SUPERSCRIPT_Y 17
SUPERSCRIPT_SIZE 23
SUBSCRIPT_X 0
SUBSCRIPT_Y 5
SUBSCRIPT_SIZE 23
AVG_LOWERCASE_WIDTH 87
AVG_UPPERCASE_WIDTH 256
ENDPROPERTIES
CHARS 233
STARTCHAR space
ENCODING 32
SWIDTH 150 0
DWIDTH 5 0
BBX 1 1 0 0
BITMAP
00
ENDCHAR
STARTCHAR exclam
ENCODING 33
SWIDTH 189 0
DWIDTH 7 0
BBX 10 19 2 0
BITMAP
000050
0002C0
000780
000B00
000E00
001C00
002800
003400
006000
009000
008000
014000
020000
050000
080000
000000
000000
700000
D00000
ENDCHAR
STARTCHAR quotedbl
ENCODING 34
SWIDTH 214 0
DWIDTH 8 0
BBX 8 5 2 10
BITMAP
0609
0D28
2870
6090
8140
ENDCHAR
STARTCHAR numbersign
ENCODING 35
SWIDTH 289 0
DWIDTH 10 0
BBX 11 11 0 0
BITMAP
001420
006090
0BFFF8
018200
020600
020800
7FFF80
081400
082000
141000
104000
ENDCHAR
STARTCHAR dollar
ENCODING 36
SWIDTH 269 0
DWIDTH 10 0
BBX 10 16 0 -2
BITMAP
000040
000080
000140
001780
008590
018840
01D400
00B000
003800
005D00
108A00
614600
A20800
2A5000
080000
080000
ENDCHAR
STARTCHAR percent
ENCODING 37
SWIDTH 388 0
DWIDTH 14 0
BBX 14 17 0 -3
BITMAP
00000040
00000180
00000200
02A00800
04242400
20246000
20248000
70620A80
7A8525C0
2A1880D0
00218080
00918080
0141C600
0200B800
08000000
14000000
10000000
ENDCHAR
STARTCHAR ampersand
ENCODING 38
SWIDTH 507 0
DWIDTH 18 0
BBX 18 17 0 0
BITMAP
0001F00000
0005280000
0008180000
0014240000
0024200000
0024500000
0019400000
001C000000
005C0007D0
060D002560
180A005000
3403414000
7002810000
7400E40000
3800780000
1E419F9090
06F902BE40
ENDCHAR
STARTCHAR quotesingle
ENCODING 39
SWIDTH 120 0
DWIDTH 4 0
BBX 4 5 2 10
BITMAP
0B
1C
34
90
40
ENDCHAR
STARTCHAR parenleft
ENCODING 40
SWIDTH 250 0
DWIDTH 9 0
BBX 9 27 3 -4
BITMAP
000180
000600
000800
002400
006000
00C000
028000
034000
0B0000
0E0000
1D0000
1C0000
280000
340000
740000
700000
700000
A00000
A00000
A00000
A00000
600000
600000
600000
200000
200000
100000
ENDCHAR
STARTCHAR parenright
ENCODING 41
SWIDTH 276 0
DWIDTH 10 0
BBX 9 27 1 -4
BITMAP
000500
000200
000200
000200
000240
000240
000240
000240
000240
000340
000340
000740
000700
000B00
000A00
000D00
001C00
002800
003400
006000
00D000
018000
034000
0A0000
180000
200000
400000
ENDCHAR
STARTCHAR asterisk
ENCODING 42
SWIDTH 188 0
DWIDTH 7 0
BBX 7 6 1 9
BITMAP
0140
0200
6664
0A40
2580
5080
ENDCHAR
STARTCHAR plus
ENCODING 43
SWIDTH 301 0
DWIDTH 11 0
BBX 8 9 2 1
BITMAP
0050
0090
00C0
0180
BFFE
0300
0600
0900
0400
ENDCHAR
STARTCHAR comma
ENCODING 44
SWIDTH 112 0
DWIDTH 4 0
BBX 3 5 0 -3
BITMAP
08
1C
18
20
40
ENDCHAR
STARTCHAR hyphen
ENCODING 45
SWIDTH 245 0
DWIDTH 9 0
BBX 7 1 1 5
BITMAP
6BF8
ENDCHAR
STARTCHAR period
ENCODING 46
SWIDTH 112 0
DWIDTH 4 0
BBX 2 3 1 0
BITMAP
10
B0
90
ENDCHAR
STARTCHAR slash
ENCODING 47
SWIDTH 210 0
DWIDTH 8 0
BBX 15 25 -1 -2
BITMAP
00000014
00000020
00000050
00000080
00000240
00000200
00000800
00001400
00002000
00005000
00008000
00024000
00060000
00080000
00140000
00200000
00500000
00800000
02400000
06000000
08000000
14000000
20000000
50000000
40000000
ENDCHAR
STARTCHAR zero
ENCODING 48
SWIDTH 349 0
DWIDTH 13 0
BBX 10 11 2 0
BITMAP
006F80
0501D0
0400B0
200070
500070
900060
D00050
D00080
E00200
791900
1FD000
ENDCHAR
STARTCHAR one
ENCODING 49
SWIDTH 189 0
DWIDTH 7 0
BBX 8 11 1 0
BITMAP
016D
1EB4
00E0
01D0
0380
0700
0A00
1D00
2C00
3800
7000
ENDCHAR
STARTCHAR two
ENCODING 50
SWIDTH 277 0
DWIDTH 10 0
BBX 10 11 0 0
BITMAP
002F80
0091E0
0200A0
0100A0
0000C0
000240
000900
006000
024000
1E5580
96BE40
ENDCHAR
STARTCHAR three
ENCODING 51
SWIDTH 253 0
DWIDTH 9 0
BBX 12 17 -2 -6
BITMAP
000AE4
00202C
00001D
00001C
000038
0001D0
006E00
004680
0000A0
000074
000074
000070
000060
0000C0
400240
901900
7F9000
ENDCHAR
STARTCHAR four
ENCODING 52
SWIDTH 363 0
DWIDTH 13 0
BBX 16 19 1 0
BITMAP
00000001
00000019
00000074
000002D0
00001A80
00005300
00024A00
00080C00
00202800
00803400
02006000
0800D000
2951C140
55AFF900
00034000
000B0000
000E0000
001D0000
00180000
ENDCHAR
STARTCHAR five
ENCODING 53
SWIDTH 250 0
DWIDTH 9 0
BBX 14 18 -3 -6
BITMAP
00000010
0001FFD0
00025500
00050000
00080000
000C0000
001F4000
0002D000
0000F000
00007400
00003400
00003400
00003400
00006000
00009000
00014000
64190000
2F900000
ENDCHAR
STARTCHAR six
ENCODING 54
SWIDTH 296 0
DWIDTH 11 0
BBX 14 18 2 0
BITMAP
00006F80
000240A0
00140010
00500000
01800000
02000000
09000000
18640000
2AAE0000
380B4000
B0034000
A0034000
D0030000
D0060000
D0090000
D0180000
B4500000
6E400000
ENDCHAR
STARTCHAR seven
ENCODING 55
SWIDTH 326 0
DWIDTH 12 0
BBX 15 17 -1 -6
BITMAP
002FFA64
007FFFE0
00900180
01400040
01000200
00000800
00001400
00005000
00018000
00060000
00080000
00340000
00D00000
02800000
0A000000
1D000000
74000000
ENDCHAR
STARTCHAR eight
ENCODING 56
SWIDTH 305 0
DWIDTH 11 0
BBX 12 17 1 0
BITMAP
0006B8
00241E
00600A
00A00A
00B009
007814
002D90
001F40
0193C0
0901E0
2800B0
7000B0
700070
B000A0
740080
3D0600
0BE400
ENDCHAR
STARTCHAR nine
ENCODING 57
SWIDTH 304 0
DWIDTH 11 0
BBX 13 16 -2 -5
BITMAP
00016D00
00040740
00200380
00500280
00D00380
00C00340
01C00B40
01D00F00
00F46E00
006F5C00
00002800
00003000
00009000
00024000
50180000
2F900000
ENDCHAR
STARTCHAR colon
ENCODING 58
SWIDTH 156 0
DWIDTH 6 0
BBX 5 9 0 0
BITMAP
01C0
0340
0000
0000
0000
0000
0000
2800
7400
ENDCHAR
STARTCHAR semicolon
ENCODING 59
SWIDTH 156 0
DWIDTH 6 0
BBX 5 12 0 -3
BITMAP
01C0
0340
0000
0000
0000
0000
0400
2C00
1800
1400
2000
4000
ENDCHAR
STARTCHAR less
ENCODING 60
SWIDTH 301 0
DWIDTH 11 0
BBX 9 7 2 2
BITMAP
000640
00B900
1B4000
F40000
280000
024000
006400
ENDCHAR
STARTCHAR equal
ENCODING 61
SWIDTH 301 0
DWIDTH 11 0
BBX 9 4 1 3
BITMAP
1FFFC0
000000
000000
7FFF40
ENDCHAR
STARTCHAR greater
ENCODING 62
SWIDTH 301 0
DWIDTH 11 0
BBX 9 7 1 2
BITMAP
090000
069000
007900
000780
006900
1A4000
A00000
ENDCHAR
STARTCHAR question
ENCODING 63
SWIDTH 285 0
DWIDTH 10 0
BBX 12 19 2 0
BITMAP
0006A4
002ABD
00901E
00800A
00000A
00000A
00000C
000024
000190
000A00
006000
024000
0A0000
0D0000
0B4000
000000
000000
700000
D00000
ENDCHAR
STARTCHAR at
ENCODING 64
SWIDTH 492 0
DWIDTH 18 0
BBX 15 16 2 -3
BITMAP
001BF900
01940780
060000D0
18000070
20056824
50103424
8080A020
C0C0D010
C182C010
C1C5C040
C0E0D400
A0005000
74000040
2D000100
0B945800
01AA9000
ENDCHAR
STARTCHAR A
ENCODING 65
SWIDTH 996 0
DWIDTH 36 0
BBX 34 23 2 0
BITMAP
0000000001BFFA5000
00000000190016FE40
0000000050000006F0
0000000040000005D0
000000010000001380
000000010000004700
000000050000010D00
000000000000181C00
000000000000602800
000000000001803400
000000000006007000
00000000001800A000
000000007FFFFFD000
00000000009000D000
20000000024000C000
80000000090001C000
80000000240001C000
C0000000900001C000
C0000006000001C000
E0000028000001C010
B8000690000001D050
3FAAB900000000FA40
0BFE90000000007D00
ENDCHAR
STARTCHAR B
ENCODING 66
SWIDTH 638 0
DWIDTH 23 0
BBX 23 24 1 0
BITMAP
000000001400
000001ABE800
000015051B80
0000401802E0
0001002000B4
000400900074
000000C00038
000002800074
0000034000B0
0000070001D0
00000A02AA00
00000901B800
00000C001E00
000018000780
0000240002C0
0000600001D0
0000900000E0
0001800000E0
1002000000D0
B954000001C0
1F4000000280
06E000000A00
006E40006800
0001AAAA4000
ENDCHAR
STARTCHAR C
ENCODING 67
SWIDTH 557 0
DWIDTH 20 0
BBX 21 23 2 0
BITMAP
000006AAE900
000054001B80
000500000280
002400000140
009000000100
028000000000
070000000000
090000000000
1C0000000000
280000000000
380000000000
740000000000
740000000000
740000000000
740000000000
780000000000
780000001000
3C0000001000
1E0000008000
0B4000008000
03D000034000
00B8001F0000
0006AAA40000
ENDCHAR
STARTCHAR D
ENCODING 68
SWIDTH 799 0
DWIDTH 29 0
BBX 28 24 1 0
BITMAP
00000000000500
00001BFE906400
00019006FA8000
000500001F8000
0014000029F400
00200000702D00
00100000D00B40
00400001C003C0
000000024001E0
000000070000B0
0000000A000038
0000000D00002C
0000001C00001D
0000002800000D
0000003400000E
0000007000000A
00000090000009
000001C000000D
0000024000000C
00000600000024
0AEA5800000020
6016F900000080
90015BE5001500
BA94005BFF9000
ENDCHAR
STARTCHAR E
ENCODING 69
SWIDTH 494 0
DWIDTH 18 0
BBX 18 23 2 0
BITMAP
000016AE40
00009002D0
00024000A0
0006000040
000A000040
000B000000
0007800000
0001E40000
0001BD0000
0025000000
0140000000
0500000000
1800000000
3400000000
7000000000
B000000000
B000000000
B000000400
B400000800
7800001400
2D00007000
0B4006D000
01BAA50000
ENDCHAR
STARTCHAR F
ENCODING 70
SWIDTH 626 0
DWIDTH 23 0
BBX 29 23 1 0
BITMAP
0000001AFFA50000
00000194056BFFC0
0000050000091500
0000140000300000
0000100000900000
0000000001C00000
0000000002800000
0000000003400000
0000000007000000
000000000A000000
000000000D000000
000002FFFFF80000
0000000028000000
0000000034000000
0000000070000000
0800000090000000
20000001C0000000
3000000240000000
7000000500000000
3400001800000000
2D00009000000000
0F945A4000000000
02FF940000000000
ENDCHAR
STARTCHAR G
ENCODING 71
SWIDTH 571 0
DWIDTH 21 0
BBX 27 30 -2 -7
BITMAP
0000000001AFE0
0000000019407C
0000000050001C
00000002000018
00000004000014
00000020000020
00000090000000
00000180000000
00000200000000
00000600000000
00000A00000000
00000D00000000
00001C00000000
00002C00000000
00002C00006000
00002C0000E000
00002C0001E000
00001D0003D000
00000F001A8000
000006E6934000
09000014070000
18000000090000
340000001C0000
74000000240000
74000000600000
74000001800000
3C000002000000
1E000018000000
07800190000000
01AAA500000000
ENDCHAR
STARTCHAR H
ENCODING 72
SWIDTH 865 0
DWIDTH 31 0
BBX 40 25 2 0
BITMAP
00000000000000000010
000000000000000006FD
000001AFE90000002909
000009405B8000008005
00002000090000020000
00004000240000080000
00004000600000140000
00004000900000600000
00004001C00000800000
00000002800001800000
00000003400003000000
00000007000006000000
0000000A00000D000000
0000000D00001C000000
0005BFFE950028000000
0069401D5AFA74000000
064000240016FD000000
180000700000A0000000
600000900000D0000000
900001800000D0000000
C00002000001C0000000
C00009000002C0400000
D00024000002C1000000
B40180000002E9000000
2FE900000001E4000000
ENDCHAR
STARTCHAR I
ENCODING 73
SWIDTH 554 0
DWIDTH 20 0
BBX 25 23 2 0
BITMAP
00000000006B40
000000000AA900
00000000646000
0000000240C000
00000009028000
00000010030000
000000500A0000
000000400E0000
000001000D0000
000001001C0000
00000100280000
00000100340000
00000100700000
00000100900000
00000200C00000
00000082400000
1400006B400000
60000008000000
D0000014000000
D0000050000000
E0000240000000
79006400000000
1BFE4000000000
ENDCHAR
STARTCHAR J
ENCODING 74
SWIDTH 634 0
DWIDTH 23 0
BBX 30 30 0 -7
BITMAP
0000000000001AD0
000000000001AA40
0000000000191800
0000000000503000
000000000140A000
000000000400C000
0000000004018000
0000000010028000
0000000050034000
0000000040070000
00000000400A0000
00000000400D0000
00000000401C0000
0000000080280000
0000000080340000
0000000060700000
000010001AA40000
0005400001C00000
0014000001800000
0140000003000000
0500000005000000
1400000008000000
2000000020000000
6000000050000000
9000000140000000
D000000500000000
E000001400000000
B000018000000000
3D00590000000000
0BFE500000000000
ENDCHAR
STARTCHAR K
ENCODING 75
SWIDTH 936 0
DWIDTH 34 0
BBX 34 23 2 0
BITMAP
0000005BFE90001BD0
0000029456F400A5A0
000018000180064020
000050000600240010
000080000900900000
000100001C02000000
000100002808000000
000100003414000000
000100003450000000
000100007140000000
00010000B340000000
00000000A280000000
00000000D1C0000000
00000001C0D0000000
0400000280E0000000
2000000340B0000000
500000060074000000
C00000090028000000
C0000014001D000000
D0000060000B000000
E00001400003C00400
7D0068000001F95400
1BFE400000002F9000
ENDCHAR
STARTCHAR L
ENCODING 76
SWIDTH 657 0
DWIDTH 24 0
BBX 25 23 1 0
BITMAP
0000000000AE00
0000000007FF80
000000001D02C0
000000006000C0
00000000C00080
00000002400040
00000007000000
00000009000000
0000000C000000
00000028000000
00000034000000
00000070000000
000000A0000000
000000A0000000
000000D0000000
000001C0000000
00000240000000
00000700000000
01400900000000
156E5800001000
9001F800001000
E0015B94018000
6EA4006FF90000
ENDCHAR
STARTCHAR M
ENCODING 77
SWIDTH 1219 0
DWIDTH 44 0
BBX 45 23 2 0
BITMAP
000000006FFE940000000240
000000025005BF9000001D00
00000008000001BE0000B800
000000100000002C0002A000
00000050000000740005C000
00000040000000B000134000
000000400000029000470000
00000000000005C0010D0000
0000000000001680081C0000
000000000000234020280000
000000000000870080740000
0000000000020A0100700000
1400000000050D0500A00000
6000000000141C0400D00000
9000000000602C2001D00000
D00000000180285001C00000
D00000000600354001C00000
D00000001800760002C00000
E00000009000750002C00000
B40000064000B80002C01000
3D0000680000B00001D04000
1FE55B800000E00000FA4000
02BFA4000000800000790000
ENDCHAR
STARTCHAR N
ENCODING 78
SWIDTH 990 0
DWIDTH 36 0
BBX 45 23 1 0
BITMAP
0000001BE900000000006E00
000001956F8800000001EB80
0000060001F8000000074080
00000400002D000000180040
00000000002B400000200000
000000000021C00000500000
000000000020A00000800000
000000000020380001400000
0000000000501D0002000000
0000000000800A0005000000
000000000080034008000000
000000000140028014000000
00000000020000D010000000
08000000050000A010000000
140000000800007410000000
300000001400003840000000
300000002000001C40000000
700000008000000D40000000
340000024000000A40000000
2D0000090000000740000000
1F4000740000000740000000
07FAAB800000000300000000
00AFE4000000000200000000
ENDCHAR
STARTCHAR O
ENCODING 79
SWIDTH 606 0
DWIDTH 22 0
BBX 22 23 2 0
BITMAP
000006FF8000
0000A405F400
000500002D00
001400000B40
005000000380
0140000002C0
0200000001D0
0900000000D0
0800000000D0
1800000000D0
2400000000D0
3400000001C0
7000000001C0
700000000280
700000000300
740000000600
740000000800
380000001400
2D0000005000
1F0000014000
07D000050000
01F901900000
002BF9000000
ENDCHAR
STARTCHAR P
ENCODING 80
SWIDTH 783 0
DWIDTH 28 0
BBX 30 24 2 0
BITMAP
0000000000054000
000000006ABE4000
000000064061B400
0000002401C01E00
0000004002400740
00000100070003C0
000004000A0001D0
000004000D0001D0
000014001C0001D0
00000000280001D0
00000000340001C0
0000000170000280
00000001A0000700
00000001D0001D00
04000001E401A400
100000028AAA4000
8000000300000000
8000000900000000
8000001800000000
C000002000000000
D000009000000000
7400024000000000
2E40680000000000
06FE400000000000
ENDCHAR
STARTCHAR Q
ENCODING 81
SWIDTH 563 0
DWIDTH 20 0
BBX 25 29 2 -6
BITMAP
000016AA000000
00014002D00000
00040000740000
001000002C0000
004000001D0000
014000000E0000
020000000F0000
060000000B0000
090000000B0000
0D0000000B0000
0C0000000E0000
0C0000000D0000
1C0000001C0000
1D000000280000
0D000000700000
0B000000D00000
03900002800000
00BE000A000000
00000028000000
00000190000000
00000A00000000
2405A000000000
6BF50000000000
007D0000000000
0006D000000000
00006E00000000
000006E4000040
0000006E500600
00000001BFE400
ENDCHAR
STARTCHAR R
ENCODING 82
SWIDTH 854 0
DWIDTH 31 0
BBX 30 24 1 0
BITMAP
0000000000050000
000000001ABF9000
000000029090B400
0000001402801D00
0000004003000B00
000001000A000740
000004000D000340
000000001C000340
0000000028000700
0000000034000900
0000000070001800
00000000A0006000
00000000D1AA4000
00000001C2800000
0000000281C00000
0100000341D00000
0400000600D00000
2000000C00A00000
2000002400700000
6000006000380000
20000080002C0000
34000600000F0010
1E4164000007D550
06FE40000000BE00
ENDCHAR
STARTCHAR S
ENCODING 83
SWIDTH 480 0
DWIDTH 17 0
BBX 17 23 2 0
BITMAP
000006FD00
0000140740
00005001C0
0000800180
0000C00140
0000D00000
0000E00000
0000B40000
00003C0000
00001E0000
00000B4000
000003C000
000001D000
000000B000
0000007400
2000003400
9000002800
C000002400
D000003000
E000006000
B400008000
2E40060000
06FE900000
ENDCHAR
STARTCHAR T
ENCODING 84
SWIDTH 577 0
DWIDTH 21 0
BBX 27 23 2 0
BITMAP
000006FFFA5000
0000A40056BF90
00024000000BFC
00080000002400
0014000000D000
00200000024000
00100000060000
005000000D0000
005000001C0000
00000000340000
00000000700000
00000000A00000
00000000D00000
00000001C00000
00000002800000
10000007000000
5000000A000000
C000001C000000
C0000024000000
D0000090000000
F4000640000000
7E556800000000
0BFE4000000000
ENDCHAR
STARTCHAR U
ENCODING 85
SWIDTH 752 0
DWIDTH 27 0
BBX 29 23 2 0
BITMAP
0006FF9400000740
006555BD00000E00
0240002400001C00
0500009000003400
0400024000007000
200006000000D000
100008000001C000
5000240000038000
4000600000074000
4000D000000E0000
40018000001D0000
40024000002C0000
0003000000680000
0007000000740000
000A000002740000
000E000005700000
000D000004A00000
000D000010E00000
001D000040D00000
000E000100D01000
000F000400E04000
0007905000FA4000
0002FE4000790000
ENDCHAR
STARTCHAR V
ENCODING 86
SWIDTH 661 0
DWIDTH 24 0
BBX 25 23 2 0
BITMAP
001BE400007900
00A56D0001FF40
02400740021B80
050002800003C0
080000D00001C0
100000A00001C0
10000070000180
10000030000180
40000034000240
00000024000200
00000024000400
00000024000400
00000024001000
00000034000000
00000034000000
00000030000000
00000070000000
00000060000000
000000A0000000
000000D0000000
000001D0000000
00000280000000
00000200000000
ENDCHAR
STARTCHAR W
ENCODING 87
SWIDTH 822 0
DWIDTH 30 0
BBX 32 23 2 0
BITMAP
002FE40000000078
0195BD00000000AD
05001F000024010D
140007400090000A
1000034002400009
1000028007000009
500001801A00000C
400001801A000018
400000804A000024
0000008149000020
000001810A000090
000001840A000180
000001440A000200
000002100A000800
000002100B001000
0000024007005000
0000064007014000
0000060007050000
0000090007040000
00000C0007200000
0000140007800000
0000200007400000
0000200006000000
ENDCHAR
STARTCHAR X
ENCODING 88
SWIDTH 813 0
DWIDTH 29 0
BBX 29 23 2 0
BITMAP
000001E000006F00
000007F40007EF40
0000097800290240
0000102800900240
0000101C02400200
0000001C05000000
0000000D14000000
0000000D20000000
0000000A40000000
0000000A40000000
0000000700000000
0000000740000000
0000000740000000
0000001680000000
00000011C0000000
00000040E0000000
10000140B0000000
2000010078000000
500008003D000400
900020001F400800
E00180000BE42400
FAAD000002FFE000
6FA00000006F8000
ENDCHAR
STARTCHAR Y
ENCODING 89
SWIDTH 662 0
DWIDTH 24 0
BBX 32 28 0 -5
BITMAP
0000001F40000009
00000092C000002C
00000202C0000034
00000002800000B0
00000003800001D0
00000003400002C0
0000000700000740
0000000A00000F00
0000000D00002D00
0000001C00007C00
000000280000B400
000000340001E000
000000700006D000
0000007000178000
000500A000570000
009000B0014D0000
0600007418280000
1800002F90700000
3000000000D00000
7000000002800000
A000000007000000
A00000000C000000
A000000024000000
B000000090000000
7800000240000000
2D00001800000000
0B90069000000000
01BFE40000000000
ENDCHAR
STARTCHAR Z
ENCODING 90
SWIDTH 625 0
DWIDTH 23 0
BBX 24 23 2 0
BITMAP
000006FF9000
000024016E45
0000900001B8
0000400000A0
000100000240
000100000900
000000002400
000000009000
000000020000
000000180000
000000600000
000001800000
000006000000
000014000000
000050000000
000240000000
000900000140
002000000200
008000000500
020000001800
0FE95001A000
3FFFFFFF8000
9016BFF90000
ENDCHAR
STARTCHAR bracketleft
ENCODING 91
SWIDTH 318 0
DWIDTH 11 0
BBX 12 25 3 -3
BITMAP
000EAA
001D00
002C00
002800
003400
007400
007000
00A000
00D000
01C000
01C000
028000
034000
070000
070000
0A0000
0D0000
1D0000
2C0000
280000
380000
740000
B00000
F00000
FA9000
ENDCHAR
STARTCHAR backslash
ENCODING 92
SWIDTH 212 0
DWIDTH 8 0
BBX 6 25 1 -2
BITMAP
8000
8000
8000
5000
5000
2000
2000
2000
1400
1400
0800
0800
0800
0900
0500
0200
0200
0200
0240
0140
0080
0080
0080
0090
0040
ENDCHAR
STARTCHAR bracketright
ENCODING 93
SWIDTH 339 0
DWIDTH 12 0
BBX 13 25 0 -3
BITMAP
0001ABC0
00000380
00000380
00000740
00000B00
00000A00
00000D00
00001D00
00001C00
00002800
00003400
00007400
00007000
0000A000
0000D000
0001C000
0001C000
00028000
00034000
00074000
000B0000
000A0000
000D0000
001D0000
6AAC0000
ENDCHAR
STARTCHAR asciicircum
ENCODING 94
SWIDTH 272 0
DWIDTH 10 0
BBX 7 7 2 6
BITMAP
00D0
02E0
0670
0834
2428
501C
8008
ENDCHAR
STARTCHAR underscore
ENCODING 95
SWIDTH 356 0
DWIDTH 13 0
BBX 12 1 -1 -2
BITMAP
6AAA95
ENDCHAR
STARTCHAR grave
ENCODING 96
SWIDTH 155 0
DWIDTH 6 0
BBX 4 4 1 11
BITMAP
50
F0
28
05
ENDCHAR
STARTCHAR a
ENCODING 97
SWIDTH 294 0
DWIDTH 11 0
BBX 10 9 1 0
BITMAP
01BE90
064780
180300
340A00
A00D00
A02C00
E05800
A12840
781D00
ENDCHAR
STARTCHAR b
ENCODING 98
SWIDTH 247 0
DWIDTH 9 0
BBX 18 27 1 0
BITMAP
0000001BD0
00000195A0
0000050020
0000140000
0000500000
0000400000
0001000000
0005000000
0008000000
0014000000
0020000000
0050000000
0080000000
0180000000
0240000000
0200000000
0A00000000
0D00000000
1C7C000000
2A4E000000
280A000000
3409000000
7008000000
A018000000
A020000000
A180000000
7D00000000
ENDCHAR
STARTCHAR c
ENCODING 99
SWIDTH 203 0
DWIDTH 7 0
BBX 7 9 1 0
BITMAP
0124
0020
1000
2000
A000
9000
D010
B580
7D00
ENDCHAR
STARTCHAR d
ENCODING 100
SWIDTH 285 0
DWIDTH 10 0
BBX 22 27 1 0
BITMAP
0000000006E0
000000002970
000000008010
000000020000
000000040000
000000140000
000000100000
000000400000
000001400000
000002000000
000005000000
000008000000
000014000000
000020000000
000060000000
000090000000
0000C0000000
000180000000
015B40000000
050700000000
140A00000000
300D00000000
A01D00000000
A02C00000000
D09C00000000
B62D40000000
781E00000000
ENDCHAR
STARTCHAR e
ENCODING 101
SWIDTH 206 0
DWIDTH 7 0
BBX 7 9 1 0
BITMAP
01A0
0434
2060
2640
A000
9000
E000
B050
7E40
ENDCHAR
STARTCHAR f
ENCODING 102
SWIDTH 156 0
DWIDTH 6 0
BBX 30 36 -11 -9
BITMAP
0000000000001B80
000000000001A5E0
0000000000050020
0000000000140000
0000000000200000
0000000000800000
0000000001400000
0000000002000000
0000000006000000
000000000C000000
0000000018000000
0000000024000000
0000000070000000
00000000A0000000
00000000D0000000
00000001C0000000
0000000280000000
0000000340000000
000000BFFA000000
0000000A00000000
0000000D00000000
0000001C00000000
0000002800000000
0000003400000000
0000007000000000
000000A000000000
000000C000000000
0000018000000000
0000030000000000
0000060000000000
0000080000000000
0000240000000000
0000500000000000
5001400000000000
6005000000000000
2E90000000000000
ENDCHAR
STARTCHAR g
ENCODING 103
SWIDTH 210 0
DWIDTH 8 0
BBX 12 19 -4 -9
BITMAP
000001
0001B8
00042C
000418
002418
002420
002860
001F80
000080
000180
0001C0
1800E0
600070
D00034
D00028
E00024
B40030
2E4190
06FE00
ENDCHAR
STARTCHAR h
ENCODING 104
SWIDTH 292 0
DWIDTH 11 0
BBX 19 27 1 0
BITMAP
00000006F4
000000646C
0000014008
0000050000
0000140000
0000100000
0000800000
0001400000
0002000000
0009000000
0008000000
0024000000
0020000000
0090000000
00C0000000
0180000000
0240000000
0300000000
0A0BC00000
0D12800000
1C43400000
290A000000
380D000000
740C000000
701C000000
A01C400000
C00E000000
ENDCHAR
STARTCHAR i
ENCODING 105
SWIDTH 149 0
DWIDTH 5 0
BBX 7 15 1 0
BITMAP
0004
0020
0080
0140
0000
0000
0600
1900
1C00
2800
3000
7000
A000
A500
B400
ENDCHAR
STARTCHAR j
ENCODING 106
SWIDTH 136 0
DWIDTH 5 0
BBX 18 24 -11 -9
BITMAP
0000000010
0000000050
0000000080
0000000100
0000000000
0000000000
0000000900
0000005D00
0000001C00
0000002800
0000003400
0000007000
000000A000
000000D000
000001C000
0000024000
0000030000
0000090000
0000080000
0000200000
4000500000
4001400000
9019000000
2E90000000
ENDCHAR
STARTCHAR k
ENCODING 107
SWIDTH 259 0
DWIDTH 9 0
BBX 19 27 1 0
BITMAP
0000000BE4
0000006468
0000024018
0000080000
0000200000
0000500000
0001400000
0002000000
0005000000
0008000000
0020000000
0020000000
0090000000
0080000000
0140000000
0300000000
0600000000
0900000000
0C6E000000
1947000000
280A000000
3828000000
3740000000
7240000000
A1C0000000
90D0000000
C079000000
ENDCHAR
STARTCHAR l
ENCODING 108
SWIDTH 134 0
DWIDTH 5 0
BBX 16 27 1 0
BITMAP
0000006E
000001EB
00000A01
00001400
00006000
00008000
00020000
00050000
00080000
00140000
00200000
00500000
00800000
01800000
02000000
02000000
09000000
0C000000
18000000
28000000
34000000
70000000
70000000
A0000000
A0000000
E1000000
A4000000
ENDCHAR
STARTCHAR m
ENCODING 109
SWIDTH 413 0
DWIDTH 15 0
BBX 14 9 1 0
BITMAP
1D1A06C0
594711C0
0D0741C0
1D0A4280
280A0300
340D0600
70280A00
A0340910
C0700B40
ENDCHAR
STARTCHAR n
ENCODING 110
SWIDTH 291 0
DWIDTH 10 0
BBX 9 9 1 0
BITMAP
1D0B80
491280
0D4340
1D0A00
280D00
340C00
701C00
901C40
C01E00
ENDCHAR
STARTCHAR o
ENCODING 111
SWIDTH 225 0
DWIDTH 8 0
BBX 7 9 1 0
BITMAP
02F0
0838
2028
2028
9024
9020
D050
A140
7D00
ENDCHAR
STARTCHAR p
ENCODING 112
SWIDTH 261 0
DWIDTH 9 0
BBX 10 19 -1 -9
BITMAP
007000
0171D0
00A070
00D070
018070
024060
020090
090180
1E0A00
1FE400
240000
340000
700000
600000
900000
D00000
C00000
C00000
E40000
ENDCHAR
STARTCHAR q
ENCODING 113
SWIDTH 269 0
DWIDTH 10 0
BBX 9 18 1 -9
BITMAP
005680
050280
140300
300A00
A01C00
D03800
D0B400
E56000
B49000
00C000
018000
024000
034000
070000
0A0000
0A0000
0E0000
0F4000
ENDCHAR
STARTCHAR r
ENCODING 114
SWIDTH 195 0
DWIDTH 7 0
BBX 8 9 1 0
BITMAP
2D2D
4D44
0D00
1D00
1800
2400
3000
7000
9000
ENDCHAR
STARTCHAR s
ENCODING 115
SWIDTH 188 0
DWIDTH 7 0
BBX 7 9 0 0
BITMAP
02A4
0608
0A00
0740
02C0
00D0
40A0
C090
A640
ENDCHAR
STARTCHAR t
ENCODING 116
SWIDTH 171 0
DWIDTH 6 0
BBX 7 14 1 0
BITMAP
0010
00A0
01C0
0240
0700
6FE4
0D00
1C00
2800
3400
7000
7040
7140
3D00
ENDCHAR
STARTCHAR u
ENCODING 117
SWIDTH 299 0
DWIDTH 11 0
BBX 10 9 1 0
BITMAP
060080
1D0280
580700
240A00
701900
A01D00
A04D00
A50D50
780B40
ENDCHAR
STARTCHAR v
ENCODING 118
SWIDTH 271 0
DWIDTH 10 0
BBX 9 9 1 0
BITMAP
2D0740
4D0280
0D0240
0C0300
1C0A00
181800
246000
368000
780000
ENDCHAR
STARTCHAR w
ENCODING 119
SWIDTH 369 0
DWIDTH 13 0
BBX 12 9 1 0
BITMAP
74001D
5C0C1A
1C1802
0C2802
0C6401
1D2404
1D3404
182450
241E40
ENDCHAR
STARTCHAR x
ENCODING 120
SWIDTH 263 0
DWIDTH 9 0
BBX 10 9 0 0
BITMAP
0242E0
068920
029010
01D000
01C000
01D000
41A000
983440
E01E00
ENDCHAR
STARTCHAR y
ENCODING 121
SWIDTH 280 0
DWIDTH 10 0
BBX 17 18 -7 -9
BITMAP
0000060080
00001D0280
0000180340
0000240B00
0000301A00
0000601D00
0000A05C00
0000A12800
0000783400
0000006000
0000009000
000000C000
2000024000
2000060000
6000080000
7000240000
2801900000
0BA9000000
ENDCHAR
STARTCHAR z
ENCODING 122
SWIDTH 238 0
DWIDTH 9 0
BBX 9 9 0 0
BITMAP
07FA80
081A00
001800
005000
014000
050000
140100
790500
9BF400
ENDCHAR
STARTCHAR braceleft
ENCODING 123
SWIDTH 291 0
DWIDTH 10 0
BBX 11 27 3 -4
BITMAP
000054
000650
001C00
003400
007000
00A000
00A000
00A000
00D000
00D000
01C000
024000
190000
780000
0E0000
0A0000
0A0000
0D0000
1C0000
340000
700000
A00000
A00000
E00000
A00000
780000
054000
ENDCHAR
STARTCHAR bar
ENCODING 124
SWIDTH 162 0
DWIDTH 6 0
BBX 1 32 3 -9
BITMAP
80
80
80
80
80
80
80
80
80
80
80
80
80
80
80
80
80
80
80
80
80
80
80
80
80
80
80
80
80
80
80
80
ENDCHAR
STARTCHAR braceright
ENCODING 125
SWIDTH 285 0
DWIDTH 10 0
BBX 11 27 0 -4
BITMAP
000540
0001A0
000028
000028
000028
000034
000070
0000A0
0000D0
0001C0
000280
000380
0002C0
0000F4
000190
000600
000D00
001C00
002800
002800
002800
003400
003400
007000
00D000
064000
540000
ENDCHAR
STARTCHAR asciitilde
ENCODING 126
SWIDTH 383 0
DWIDTH 14 0
BBX 11 4 2 4
BITMAP
000004
1BA414
506F90
400000
ENDCHAR
STARTCHAR space.dup1
ENCODING 160
SWIDTH 150 0
DWIDTH 5 0
BBX 1 1 0 0
BITMAP
00
ENDCHAR
STARTCHAR exclamdown
ENCODING 161
SWIDTH 189 0
DWIDTH 7 0
BBX 10 19 -3 -10
BITMAP
0000A0
000180
000000
000000
000500
000800
001400
002000
006000
009000
00C000
028000
030000
0A0000
0D0000
1C0000
3C0000
740000
400000
ENDCHAR
STARTCHAR cent
ENCODING 162
SWIDTH 194 0
DWIDTH 7 0
BBX 8 17 0 -3
BITMAP
0001
0004
0008
006D
0129
0850
2480
3140
7200
7200
7910
2E40
1400
2000
1000
4000
4000
ENDCHAR
STARTCHAR sterling
ENCODING 163
SWIDTH 344 0
DWIDTH 12 0
BBX 12 11 0 0
BITMAP
00006D
00015B
000502
000C00
001800
01B950
003000
006000
058000
57F914
A56FE0
ENDCHAR
STARTCHAR currency
ENCODING 164
SWIDTH 344 0
DWIDTH 12 0
BBX 12 11 0 0
BITMAP
020002
01AF9D
0090B0
020020
050014
080024
090020
060090
069580
140080
500050
ENDCHAR
STARTCHAR yen
ENCODING 165
SWIDTH 309 0
DWIDTH 11 0
BBX 11 11 1 0
BITMAP
2D01A8
060100
030000
020000
02BC00
2B4000
030000
ABF400
0A0000
0D0000
0A4000
ENDCHAR
STARTCHAR brokenbar
ENCODING 166
SWIDTH 162 0
DWIDTH 6 0
BBX 1 32 3 -9
BITMAP
80
80
80
80
80
80
80
80
80
80
80
80
00
00
00
00
00
00
00
00
80
80
80
80
80
80
80
80
80
80
80
80
ENDCHAR
STARTCHAR section
ENCODING 167
SWIDTH 395 0
DWIDTH 14 0
BBX 19 28 -2 -9
BITMAP
0000001690
000002EAB4
000016402C
000065000C
0000890008
00018C0010
00028C0000
00024D0000
00024D0000
00028A0000
00028B0000
0002870000
0001C34000
0001D38000
0000D28000
0000A1C000
0000B1D000
000070D000
000034D000
000028D000
040028D000
200028C000
600029C000
A000264000
A000260000
B800580000
2F56D00000
06A9000000
ENDCHAR
STARTCHAR dieresis
ENCODING 168
SWIDTH 174 0
DWIDTH 6 0
BBX 6 2 0 11
BITMAP
3490
70C0
ENDCHAR
STARTCHAR copyright
ENCODING 169
SWIDTH 331 0
DWIDTH 12 0
BBX 9 9 2 4
BITMAP
000500
11A940
150480
480080
880080
880180
969200
241800
069000
ENDCHAR
STARTCHAR ordfeminine
ENCODING 170
SWIDTH 226 0
DWIDTH 8 0
BBX 5 4 2 7
BITMAP
1680
5240
8200
8240
ENDCHAR
STARTCHAR guillemotleft
ENCODING 171
SWIDTH 289 0
DWIDTH 10 0
BBX 10 9 1 0
BITMAP
0020B0
0183C0
061D00
247000
92C000
E2F000
38BC00
0E3E00
060E00
ENDCHAR
STARTCHAR logicalnot
ENCODING 172
SWIDTH 265 0
DWIDTH 10 0
BBX 9 5 0 4
BITMAP
7FFF80
000340
000700
000A00
000800
ENDCHAR
STARTCHAR registered
ENCODING 174
SWIDTH 331 0
DWIDTH 12 0
BBX 9 9 2 4
BITMAP
015900
144140
126480
421480
859080
888080
986200
600900
1FA400
ENDCHAR
STARTCHAR degree
ENCODING 176
SWIDTH 104 0
DWIDTH 4 0
BBX 4 4 3 10
BITMAP
68
45
88
B4
ENDCHAR
STARTCHAR plusminus
ENCODING 177
SWIDTH 301 0
DWIDTH 11 0
BBX 10 10 0 0
BITMAP
000500
000900
000C00
001800
0BFFE0
002000
006000
008000
000000
6AAA00
ENDCHAR
STARTCHAR twosuperior
ENCODING 178
SWIDTH 215 0
DWIDTH 8 0
BBX 5 6 2 5
BITMAP
0A40
1080
0140
0500
1400
AA40
ENDCHAR
STARTCHAR threesuperior
ENCODING 179
SWIDTH 190 0
DWIDTH 7 0
BBX 4 6 2 5
BITMAP
1A
02
19
03
02
94
ENDCHAR
STARTCHAR acute
ENCODING 180
SWIDTH 157 0
DWIDTH 6 0
BBX 4 3 1 11
BITMAP
0E
28
50
ENDCHAR
STARTCHAR mu
ENCODING 181
SWIDTH 324 0
DWIDTH 12 0
BBX 12 15 -1 -6
BITMAP
001803
00340A
00601C
00D028
01C064
038074
078130
0A8475
0DD029
180000
240000
340000
700000
B00000
400000
ENDCHAR
STARTCHAR paragraph
ENCODING 182
SWIDTH 392 0
DWIDTH 14 0
BBX 19 20 -4 -9
BITMAP
00000015A8
000001F0E0
00000FE1D0
00003FE1C0
0000BFD280
0001FFC340
0002FF8700
0002FF4A00
0001FF4D00
0000FF1C00
00002E2800
0000093400
00000C7000
000018A000
040021C000
2400224000
70008A0000
7001680000
3806D00000
1BA9000000
ENDCHAR
STARTCHAR periodcentered
ENCODING 183
SWIDTH 112 0
DWIDTH 4 0
BBX 2 3 1 4
BITMAP
70
B0
90
ENDCHAR
STARTCHAR cedilla
ENCODING 184
SWIDTH 115 0
DWIDTH 4 0
BBX 2 4 1 -4
BITMAP
10
20
20
40
ENDCHAR
STARTCHAR onesuperior
ENCODING 185
SWIDTH 174 0
DWIDTH 6 0
BBX 3 6 2 5
BITMAP
AC
18
20
60
90
80
ENDCHAR
STARTCHAR ordmasculine
ENCODING 186
SWIDTH 178 0
DWIDTH 6 0
BBX 4 4 2 7
BITMAP
19
85
84
80
ENDCHAR
STARTCHAR guillemotright
ENCODING 187
SWIDTH 276 0
DWIDTH 10 0
BBX 10 9 -1 0
BITMAP
0B0900
078B00
01D380
00B4E0
002460
018240
050900
242000
908000
ENDCHAR
STARTCHAR onequarter
ENCODING 188
SWIDTH 435 0
DWIDTH 16 0
BBX 13 15 2 -2
BITMAP
00000100
00000500
01801800
16406000
06008000
09020040
0C080240
24240600
30500D00
61811800
0606F900
08003000
20006000
90000000
40000000
ENDCHAR
STARTCHAR onehalf
ENCODING 189
SWIDTH 434 0
DWIDTH 16 0
BBX 13 15 2 -2
BITMAP
00000100
00000500
01801800
16406000
02008000
09020500
0C082680
142441C0
30500180
61800600
06001400
08014100
200AB900
90000000
40000000
ENDCHAR
STARTCHAR threequarters
ENCODING 190
SWIDTH 476 0
DWIDTH 17 0
BBX 15 15 2 -2
BITMAP
00000010
00000080
06800200
10C00900
01802400
0A805014
00C180A0
00C60190
41481580
64205240
0090AB40
02400900
06000800
18000000
10000000
ENDCHAR
STARTCHAR questiondown
ENCODING 191
SWIDTH 285 0
DWIDTH 10 0
BBX 12 19 -2 -10
BITMAP
000007
00000D
000000
000000
0000E0
000070
0000A0
000180
000900
006000
064000
180000
340000
600000
A00000
A00100
B40600
3EA800
0A9000
ENDCHAR
STARTCHAR Agrave
ENCODING 192
SWIDTH 996 0
DWIDTH 36 0
BBX 34 27 2 0
BITMAP
000000000000001400
000000000000001E40
000000000000000190
000000000000000000
0000000001BFFA5000
00000000190016FE40
0000000050000006F0
0000000040000005D0
000000010000001380
000000010000004700
000000050000010D00
000000000000181C00
000000000000602800
000000000001803400
000000000006007000
00000000001800A000
000000007FFFFFD000
00000000009000D000
20000000024000C000
80000000090001C000
80000000240001C000
C0000000900001C000
C0000006000001C000
E0000028000001C010
B8000690000001D050
3FAAB900000000FA40
0BFE90000000007D00
ENDCHAR
STARTCHAR Aacute
ENCODING 193
SWIDTH 996 0
DWIDTH 36 0
BBX 35 28 2 0
BITMAP
000000000000000014
000000000000000078
0000000000000001D0
000000000000000600
000000000000000000
0000000001BFFA5000
00000000190016FE40
0000000050000006F0
0000000040000005D0
000000010000001380
000000010000004700
000000050000010D00
000000000000181C00
000000000000602800
000000000001803400
000000000006007000
00000000001800A000
000000007FFFFFD000
00000000009000D000
20000000024000C000
80000000090001C000
80000000240001C000
C0000000900001C000
C0000006000001C000
E0000028000001C010
B8000690000001D050
3FAAB900000000FA40
0BFE90000000007D00
ENDCHAR
STARTCHAR Acircumflex
ENCODING 194
SWIDTH 996 0
DWIDTH 36 0
BBX 36 28 2 0
BITMAP
000000000000000060
0000000000000001F8
000000000000000A1A
000000000000000000
000000000000000000
0000000001BFFA5000
00000000190016FE40
0000000050000006F0
0000000040000005D0
000000010000001380
000000010000004700
000000050000010D00
000000000000181C00
000000000000602800
000000000001803400
000000000006007000
00000000001800A000
000000007FFFFFD000
00000000009000D000
20000000024000C000
80000000090001C000
80000000240001C000
C0000000900001C000
C0000006000001C000
E0000028000001C010
B8000690000001D050
3FAAB900000000FA40
0BFE90000000007D00
ENDCHAR
STARTCHAR Atilde
ENCODING 195
SWIDTH 996 0
DWIDTH 36 0
BBX 37 26 2 0
BITMAP
00000000000000079040
00000000000000146A00
00000000000000000000
0000000001BFFA500000
00000000190016FE4000
0000000050000006F000
0000000040000005D000
00000001000000138000
00000001000000470000
000000050000010D0000
000000000000181C0000
00000000000060280000
00000000000180340000
00000000000600700000
00000000001800A00000
000000007FFFFFD00000
00000000009000D00000
20000000024000C00000
80000000090001C00000
80000000240001C00000
C0000000900001C00000
C0000006000001C00000
E0000028000001C01000
B8000690000001D05000
3FAAB900000000FA4000
0BFE90000000007D0000
ENDCHAR
STARTCHAR Adieresis
ENCODING 196
SWIDTH 996 0
DWIDTH 36 0
BBX 36 27 2 0
BITMAP
000000000000000186
000000000000000289
000000000000000000
000000000000000000
0000000001BFFA5000
00000000190016FE40
0000000050000006F0
0000000040000005D0
000000010000001380
000000010000004700
000000050000010D00
000000000000181C00
000000000000602800
000000000001803400
000000000006007000
00000000001800A000
000000007FFFFFD000
00000000009000D000
20000000024000C000
80000000090001C000
80000000240001C000
C0000000900001C000
C0000006000001C000
E0000028000001C010
B8000690000001D050
3FAAB900000000FA40
0BFE90000000007D00
ENDCHAR
STARTCHAR Aring
ENCODING 197
SWIDTH 996 0
DWIDTH 36 0
BBX 35 28 2 0
BITMAP
000000000000000060
000000000000000044
000000000000000088
0000000000000000A4
000000000000000000
0000000001BFFA5000
00000000190016FE40
0000000050000006F0
0000000040000005D0
000000010000001380
000000010000004700
000000050000010D00
000000000000181C00
000000000000602800
000000000001803400
000000000006007000
00000000001800A000
000000007FFFFFD000
00000000009000D000
20000000024000C000
80000000090001C000
80000000240001C000
C0000000900001C000
C0000006000001C000
E0000028000001C010
B8000690000001D050
3FAAB900000000FA40
0BFE90000000007D00
ENDCHAR
STARTCHAR AE
ENCODING 198
SWIDTH 1271 0
DWIDTH 46 0
BBX 46 23 2 0
BITMAP
0000000001BFFA400006AA40
00000000190016FE405002D0
0000000050000006F1800090
0000000040000005E3000040
0000000100000012C7000040
000000010000004347400000
000000010000020B03C00000
000000000000180D01F40000
000000000000601C01BD0000
000000000001802C15000000
000000000006002940000000
000000000018003900000000
000000002FFFFFF800000000
000000000090007400000000
200000000240007000000000
800000000900007000000000
80000000240000B000000000
C0000000900000B000000400
C00000060000007400000800
E00000280000003800001400
B80006D00000002D00007000
3FAABD000000000B4006D000
0BFE900000000001BAA50000
ENDCHAR
STARTCHAR Ccedilla
ENCODING 199
SWIDTH 557 0
DWIDTH 20 0
BBX 21 27 2 -4
BITMAP
000006AAE900
000054001B40
000500000280
002400000200
009000000100
024000000000
070000000000
090000000000
1C0000000000
280000000000
380000000000
740000000000
740000000000
740000000000
740000000000
780000000000
7C0000001000
3D0000005000
1E0000008000
0B8000018000
02E000070000
007E406D0000
0006AA500000
000020000000
000020000000
000020000000
000040000000
ENDCHAR
STARTCHAR Egrave
ENCODING 200
SWIDTH 463 0
DWIDTH 17 0
BBX 18 27 1 0
BITMAP
0000014000
000001F400
0000001900
0000000000
000016AA40
00009002D0
0002400090
0006000080
000A000040
000A000000
0007400000
0002E40000
0001FC0000
0065000000
0140000000
0900000000
1800000000
3400000000
7000000000
B000000000
E000000000
F000000800
B000000800
B400002400
3C00007000
1F40069000
01AAA50000
ENDCHAR
STARTCHAR Eacute
ENCODING 201
SWIDTH 463 0
DWIDTH 17 0
BBX 18 27 1 0
BITMAP
0000000A00
0000002900
0000019000
0000000000
000016AA40
00009002D0
0002400090
0006000080
000A000040
000A000000
0007400000
0002E40000
0001FC0000
0065000000
0140000000
0900000000
1800000000
3400000000
7000000000
B000000000
E000000000
F000000800
B000000800
B400002400
3C00007000
1F40069000
01AAA50000
ENDCHAR
STARTCHAR Ecircumflex
ENCODING 202
SWIDTH 463 0
DWIDTH 17 0
BBX 18 28 1 0
BITMAP
0000006000
000001F800
0000061A00
0000000000
0000000000
000016AA40
00009002D0
0002400090
0006000080
000A000040
000A000000
0007400000
0002E40000
0001FC0000
0065000000
0140000000
0900000000
1800000000
3400000000
7000000000
B000000000
E000000000
F000000800
B000000800
B400002400
3C00007000
1F40069000
01AAA50000
ENDCHAR
STARTCHAR Edieresis
ENCODING 203
SWIDTH 463 0
DWIDTH 17 0
BBX 18 27 1 0
BITMAP
0000008600
0000018A00
0000000000
0000000000
000016AA40
00009002D0
0002400090
0006000080
000A000040
000A000000
0007400000
0002E40000
0001FC0000
0065000000
0140000000
0900000000
1800000000
3400000000
7000000000
B000000000
E000000000
F000000800
B000000800
B400002400
3C00007000
1F40069000
01AAA50000
ENDCHAR
STARTCHAR Igrave
ENCODING 204
SWIDTH 514 0
DWIDTH 19 0
BBX 25 27 0 0
BITMAP
00000000040000
00000000069000
00000000001000
00000000000000
00000000005BC0
00000000069A00
00000000282400
00000001806000
0000000200C000
00000008028000
00000010034000
00000050070000
000000400A0000
000000400D0000
000001000D0000
00000100180000
00000100240000
00000100300000
00000040A00000
01000050C00000
0900001A900000
24000006000000
70000008000000
B0000020000000
74000140000000
3E405900000000
06FE9000000000
ENDCHAR
STARTCHAR Iacute
ENCODING 205
SWIDTH 514 0
DWIDTH 19 0
BBX 25 28 0 0
BITMAP
00000000001400
00000000007800
00000000029000
00000000040000
00000000000000
00000000005BC0
00000000069A00
00000000282400
00000001806000
0000000200C000
00000008028000
00000010034000
00000050070000
000000400A0000
000000400D0000
000001000D0000
00000100180000
00000100240000
00000100300000
00000040A00000
01000050C00000
0900001A900000
24000006000000
70000008000000
B0000020000000
74000140000000
3E405900000000
06FE9000000000
ENDCHAR
STARTCHAR Icircumflex
ENCODING 206
SWIDTH 514 0
DWIDTH 19 0
BBX 25 28 0 0
BITMAP
00000000002000
0000000001F800
00000000065B00
00000000000000
00000000000000
00000000005BC0
00000000069A00
00000000282400
00000001806000
0000000200C000
00000008028000
00000010034000
00000050070000
000000400A0000
000000400D0000
000001000D0000
00000100180000
00000100240000
00000100300000
00000040A00000
01000050C00000
0900001A900000
24000006000000
70000008000000
B0000020000000
74000140000000
3E405900000000
06FE9000000000
ENDCHAR
STARTCHAR Idieresis
ENCODING 207
SWIDTH 514 0
DWIDTH 19 0
BBX 25 27 0 0
BITMAP
00000000018900
00000000024D00
00000000000000
00000000000000
00000000005BC0
00000000069A00
00000000282400
00000001806000
0000000200C000
00000008028000
00000010034000
00000050070000
000000400A0000
000000400D0000
000001000D0000
00000100180000
00000100240000
00000100300000
00000040A00000
01000050C00000
0900001A900000
24000006000000
70000008000000
B0000020000000
74000140000000
3E405900000000
06FE9000000000
ENDCHAR
STARTCHAR Eth
ENCODING 208
SWIDTH 800 0
DWIDTH 29 0
BBX 28 24 1 0
BITMAP
00000000000500
00001BFE906400
00019006BE4000
000500001F8000
0014000024B400
00100000602D00
00100000D00B40
004000018002C0
000000034000E0
000000070000B0
0000000A000038
0000000D00002C
0000001C00001D
00002FFFFD000D
0000003800000E
0000007000000E
000000A0000009
000001C000000D
0000028000000C
00000700000014
06AA5D00000020
6016F400000040
90015A90000000
BA94005AA55000
ENDCHAR
STARTCHAR Ntilde
ENCODING 209
SWIDTH 796 0
DWIDTH 29 0
BBX 44 26 -5 0
BITMAP
00000000000000B8040000
000000000000010B900000
0000000000000000000000
0000006FE40000000001B9
00000655BE2000000007AE
0000180007E00000001D02
0000100000B40000002001
0000000000AD0000008000
0000000000870000014000
000000000082C000020000
000000000080E000050000
0000000001407400080000
0000000002002800140000
0000000002000D00200000
0000000005000A00100000
0000000008000340400000
2000000014000280400000
50000000200001D0400000
C0000000500000E1000000
C000000080000071000000
C000000200000035000000
D000000900000029000000
B40000240000001D000000
3D0001D00000001D000000
1FEAAE000000000C000000
02BF900000000008000000
ENDCHAR
STARTCHAR Ograve
ENCODING 210
SWIDTH 608 0
DWIDTH 22 0
BBX 22 27 2 0
BITMAP
000002D00000
000001B40000
000000190000
000000000000
000006FF9000
00006401F800
000500002E00
001400000B40
005000000380
0040000002C0
0200000001D0
0500000000D0
0C00000000D0
1800000000D0
2400000000D0
3400000000D0
7400000001C0
700000000280
740000000200
740000000600
780000000800
3C0000001400
2D0000005000
0F0000014000
07D000050000
01F901A00000
001BF9000000
ENDCHAR
STARTCHAR Oacute
ENCODING 211
SWIDTH 608 0
DWIDTH 22 0
BBX 22 27 2 0
BITMAP
000000060000
0000002D0000
000000900000
000000000000
000006FF9000
00006401F800
000500002E00
001400000B40
005000000380
0040000002C0
0200000001D0
0500000000D0
0C00000000D0
1800000000D0
2400000000D0
3400000000D0
7400000001C0
700000000280
740000000200
740000000600
780000000800
3C0000001400
2D0000005000
0F0000014000
07D000050000
01F901A00000
001BF9000000
ENDCHAR
STARTCHAR Ocircumflex
ENCODING 212
SWIDTH 608 0
DWIDTH 22 0
BBX 22 28 2 0
BITMAP
000000080000
0000006A0000
000001428000
000000000000
000000000000
000006FF9000
00006401F800
000500002E00
001400000B40
005000000380
0040000002C0
0200000001D0
0500000000D0
0C00000000D0
1800000000D0
2400000000D0
3400000000D0
7400000001C0
700000000280
740000000200
740000000600
780000000800
3C0000001400
2D0000005000
0F0000014000
07D000050000
01F901A00000
001BF9000000
ENDCHAR
STARTCHAR Otilde
ENCODING 213
SWIDTH 608 0
DWIDTH 22 0
BBX 22 26 2 0
BITMAP
000001E41000
0000051A8000
000000000000
000006FF9000
00006401F800
000500002E00
001400000B40
005000000380
0040000002C0
0200000001D0
0500000000D0
0C00000000D0
1800000000D0
2400000000D0
3400000000D0
7400000001C0
700000000280
740000000200
740000000600
780000000800
3C0000001400
2D0000005000
0F0000014000
07D000050000
01F901A00000
001BF9000000
ENDCHAR
STARTCHAR Odieresis
ENCODING 214
SWIDTH 608 0
DWIDTH 22 0
BBX 22 26 2 0
BITMAP
000000624000
000000934000
000000000000
000006FF9000
00006401F800
000500002E00
001400000B40
005000000380
0040000002C0
0200000001D0
0500000000D0
0C00000000D0
1800000000D0
2400000000D0
3400000000D0
7400000001C0
700000000280
740000000200
740000000600
780000000800
3C0000001400
2D0000005000
0F0000014000
07D000050000
01F901A00000
001BF9000000
ENDCHAR
STARTCHAR multiply
ENCODING 215
SWIDTH 301 0
DWIDTH 11 0
BBX 8 8 2 1
BITMAP
080A
0928
06A0
0280
0180
0880
2060
9020
ENDCHAR
STARTCHAR Oslash
ENCODING 216
SWIDTH 605 0
DWIDTH 22 0
BBX 22 25 2 -1
BITMAP
000000000400
000006FE5800
00006406F400
00050000AD00
001400024B00
005000060780
0140000802C0
0200002001D0
0900005001D0
0800018000D0
1800020000D0
2400090000D0
3400140001C0
7000200001C0
700080000280
700140000300
740600000600
740800000800
382000001400
2D5000005000
1F8000014000
07D000050000
06F901900000
142BF9000000
100000000000
ENDCHAR
STARTCHAR Ugrave
ENCODING 217
SWIDTH 717 0
DWIDTH 26 0
BBX 28 27 1 0
BITMAP
00000000040000
000000001F4000
0000000001A000
00000000000000
0006FF9000000B
006515BC00001D
02400020000028
08000080000034
140002400000A0
200009000000D0
50001800000280
40003000000340
40009000000B00
4000C000000E00
40028000002D00
40034000006C00
0007000000A800
000A0000017400
000D0000017000
000D000004A000
001D000014E000
001C000010D000
001D000041D000
001D000101C010
001E000401D080
000B815000FA00
0002F90000B800
ENDCHAR
STARTCHAR Uacute
ENCODING 218
SWIDTH 717 0
DWIDTH 26 0
BBX 28 27 1 0
BITMAP
00000000000400
00000000002D00
00000000019000
00000000000000
0006FF9000000B
006515BC00001D
02400020000028
08000080000034
140002400000A0
200009000000D0
50001800000280
40003000000340
40009000000B00
4000C000000E00
40028000002D00
40034000006C00
0007000000A800
000A0000017400
000D0000017000
000D000004A000
001D000014E000
001C000010D000
001D000041D000
001D000101C010
001E000401D080
000B815000FA00
0002F90000B800
ENDCHAR
STARTCHAR Ucircumflex
ENCODING 219
SWIDTH 718 0
DWIDTH 26 0
BBX 28 27 1 0
BITMAP
0000000000A000
00000000027400
00000000180A00
00000000000000
0006FF9000000B
006515BC00001D
02400020000028
08000080000034
140002400000A0
200009000000D0
50001800000280
40003000000340
40009000000B00
4000C000000E00
40028000002D00
40034000006C00
00070000006800
000A0000017400
000D0000017000
000D000004A000
001D000014E000
001C000010D000
001D000041D000
001D000101C010
001E000401D080
000B815000FA00
0002F90000B800
ENDCHAR
STARTCHAR Udieresis
ENCODING 220
SWIDTH 718 0
DWIDTH 26 0
BBX 28 27 1 0
BITMAP
00000000021800
00000000062400
00000000000000
00000000000000
0006FF9000000B
006515BC00001D
02400020000028
08000080000034
140002400000A0
200009000000D0
50001800000280
40003000000340
40009000000B00
4000C000000E00
40028000002D00
40034000006C00
0007000000A800
000A0000017400
000D0000017000
000D000004A000
001D000014E000
001C000010D000
001D000041D000
001D000101C010
001E000401D080
000B815000FA00
0002F90000B800
ENDCHAR
STARTCHAR Yacute
ENCODING 221
SWIDTH 662 0
DWIDTH 24 0
BBX 32 31 0 -5
BITMAP
000000000000F000
0000000000078000
0000000000190000
0000001F40000009
00000092C000002C
00000202C0000034
00000002800000B0
00000003800001D0
00000003400002C0
0000000700000740
0000000A00000F00
0000000D00002D00
0000001C00007C00
000000280000B400
000000340001E000
000000700006D000
0000007000178000
000500A000570000
009000B0014D0000
0600007418280000
1800002F90700000
3000000000D00000
7000000002800000
A000000007000000
A00000000C000000
A000000024000000
B000000090000000
7800000240000000
2D00001800000000
0B90069000000000
01BFE40000000000
ENDCHAR
STARTCHAR Thorn
ENCODING 222
SWIDTH 745 0
DWIDTH 27 0
BBX 27 25 2 0
BITMAP
00000000000040
00000000000500
00000000002400
0000000000A000
0000000001C000
00000000024000
00000000AFE400
000000090A1F40
000000200D02D0
000000401C00E0
000000402800B0
00000000340074
00000000700074
00000000A00070
00000000D000A0
14000001C001D0
10000002800340
8000000B001900
8000000AA69000
80000018000000
C0000020000000
D0000090000000
74000240000000
2E516800000000
06FE4000000000
ENDCHAR
STARTCHAR germandbls
ENCODING 223
SWIDTH 304 0
DWIDTH 11 0
BBX 31 35 -12 -9
BITMAP
00000000000006A0
0000000000005078
000000000000001C
000000000000001C
000000000010001C
0000000000400028
0000000001000074
00000000010000D0
0000000008000380
0000000008001D00
000000002400A000
0000000020068000
00000000601D0000
0000000090A00000
00000000C2800000
0000000187000000
000000024A000000
000000030A000000
000000070A000000
0000000A07000000
0000000D02800000
0000001C00D00000
0000001800A00000
0000002450600000
00000030D1D00000
000000607F400000
000000C000000000
0000018000000000
0000024000000000
0000060000000000
0000080000000000
0000140000000000
4000500000000000
6006400000000000
2FE4000000000000
ENDCHAR
STARTCHAR agrave
ENCODING 224
SWIDTH 294 0
DWIDTH 11 0
BBX 10 15 1 0
BITMAP
001400
003D00
000A00
000140
000000
000000
01BE90
064780
180300
340A00
A00D00
A02C00
E05800
A12840
781D00
ENDCHAR
STARTCHAR aacute
ENCODING 225
SWIDTH 294 0
DWIDTH 11 0
BBX 10 14 1 0
BITMAP
0001D0
000740
000400
000000
000000
01BE90
064780
180300
340A00
A00D00
A02C00
E05800
A12840
781D00
ENDCHAR
STARTCHAR acircumflex
ENCODING 226
SWIDTH 294 0
DWIDTH 11 0
BBX 10 14 1 0
BITMAP
000E00
006690
000000
000000
000000
01BE90
064780
180300
340A00
A00D00
A02C00
E05800
A12840
781D00
ENDCHAR
STARTCHAR atilde
ENCODING 227
SWIDTH 294 0
DWIDTH 11 0
BBX 10 14 1 0
BITMAP
007450
005B80
010000
000000
000000
01BE90
064780
180300
340A00
A00D00
A02C00
E05800
A12840
781D00
ENDCHAR
STARTCHAR adieresis
ENCODING 228
SWIDTH 284 0
DWIDTH 10 0
BBX 10 13 1 0
BITMAP
0071C0
00A280
000000
000000
01BE90
064780
180300
340A00
A00D00
A02C00
E05800
A12840
781D00
ENDCHAR
STARTCHAR aring
ENCODING 229
SWIDTH 294 0
DWIDTH 11 0
BBX 10 14 1 0
BITMAP
001600
002200
002900
000000
000000
01BE90
064780
180300
340A00
A00D00
A02C00
E05800
A12840
781D00
ENDCHAR
STARTCHAR ae
ENCODING 230
SWIDTH 363 0
DWIDTH 13 0
BBX 12 10 1 0
BITMAP
000080
015AAE
040747
140A0A
200E64
A01D00
905C00
D09C00
A60E08
7807E0
ENDCHAR
STARTCHAR ccedilla
ENCODING 231
SWIDTH 203 0
DWIDTH 7 0
BBX 7 14 1 -5
BITMAP
0124
0020
1000
2000
9000
9000
D050
A580
7D00
0400
1400
1400
2000
4000
ENDCHAR
STARTCHAR egrave
ENCODING 232
SWIDTH 206 0
DWIDTH 7 0
BBX 7 15 1 0
BITMAP
0040
02D0
0074
0018
0000
0000
01A0
0434
2060
2640
A000
9000
E000
B050
7E40
ENDCHAR
STARTCHAR eacute
ENCODING 233
SWIDTH 206 0
DWIDTH 7 0
BBX 8 14 1 0
BITMAP
000E
0028
0050
0000
0000
01A0
0434
2060
2640
A000
9000
E000
B050
7E40
ENDCHAR
STARTCHAR ecircumflex
ENCODING 234
SWIDTH 206 0
DWIDTH 7 0
BBX 8 14 1 0
BITMAP
00E0
0669
0000
0000
0000
01A0
0434
2060
2640
A000
9000
E000
B050
7E40
ENDCHAR
STARTCHAR edieresis
ENCODING 235
SWIDTH 206 0
DWIDTH 7 0
BBX 8 13 1 0
BITMAP
028A
034D
0000
0000
01A0
0434
2060
2640
A000
9000
E000
B050
7E40
ENDCHAR
STARTCHAR igrave
ENCODING 236
SWIDTH 149 0
DWIDTH 5 0
BBX 6 15 1 0
BITMAP
0500
0F00
0280
0050
0000
0000
0600
1900
1C00
2800
3000
7000
A000
A500
B400
ENDCHAR
STARTCHAR iacute
ENCODING 237
SWIDTH 149 0
DWIDTH 5 0
BBX 7 14 1 0
BITMAP
0038
00A4
0140
0000
0000
0600
1900
1C00
2800
3000
7000
A000
A500
B400
ENDCHAR
STARTCHAR icircumflex
ENCODING 238
SWIDTH 149 0
DWIDTH 5 0
BBX 7 14 1 0
BITMAP
0280
19B4
0000
0000
0000
0600
1900
1C00
2800
3000
7000
A000
A500
B400
ENDCHAR
STARTCHAR idieresis
ENCODING 239
SWIDTH 149 0
DWIDTH 5 0
BBX 7 13 1 0
BITMAP
071C
0924
0000
0000
0600
1900
1C00
2800
3000
7000
A000
A500
B400
ENDCHAR
STARTCHAR eth
ENCODING 240
SWIDTH 234 0
DWIDTH 8 0
BBX 7 24 1 0
BITMAP
1000
2000
6000
6000
7400
2C00
0A50
0380
0AC0
60D0
0060
0030
0024
0018
000C
001C
040C
200C
2008
6014
9020
A050
B580
7D00
ENDCHAR
STARTCHAR ntilde
ENCODING 241
SWIDTH 291 0
DWIDTH 10 0
BBX 10 14 1 0
BITMAP
007450
005B80
010000
000000
000000
1D0B80
491280
0D4340
1D0A00
280D00
340C00
701C00
901C40
C01E00
ENDCHAR
STARTCHAR ograve
ENCODING 242
SWIDTH 225 0
DWIDTH 8 0
BBX 8 15 1 0
BITMAP
0050
00F0
0028
0005
0000
0000
02F0
0838
2028
2028
9024
9020
D050
A140
7D00
ENDCHAR
STARTCHAR oacute
ENCODING 243
SWIDTH 225 0
DWIDTH 8 0
BBX 8 14 1 0
BITMAP
000A
0029
0050
0000
0000
02F0
0838
2028
2028
9024
9020
D050
A140
7D00
ENDCHAR
STARTCHAR ocircumflex
ENCODING 244
SWIDTH 225 0
DWIDTH 8 0
BBX 9 14 1 0
BITMAP
003800
019B40
000000
000000
000000
02F000
083800
202800
202800
902400
902000
D05000
A14000
7D0000
ENDCHAR
STARTCHAR otilde
ENCODING 245
SWIDTH 225 0
DWIDTH 8 0
BBX 9 14 1 0
BITMAP
01D140
016E00
040000
000000
000000
02F000
083800
202800
202800
902400
902000
D05000
A14000
7D0000
ENDCHAR
STARTCHAR odieresis
ENCODING 246
SWIDTH 225 0
DWIDTH 8 0
BBX 8 13 1 0
BITMAP
028A
034D
0000
0000
02F0
0838
2028
2028
9024
9020
D050
A140
7D00
ENDCHAR
STARTCHAR divide
ENCODING 247
SWIDTH 301 0
DWIDTH 11 0
BBX 8 8 2 1
BITMAP
0040
0090
0000
AAA9
0000
0000
0600
0100
ENDCHAR
STARTCHAR oslash
ENCODING 248
SWIDTH 225 0
DWIDTH 8 0
BBX 9 11 0 -1
BITMAP
000140
00BE00
021E00
082A00
085A00
244900
260800
381400
295000
2F4000
400000
ENDCHAR
STARTCHAR ugrave
ENCODING 249
SWIDTH 299 0
DWIDTH 11 0
BBX 10 15 1 0
BITMAP
001400
002D00
000B00
000180
000000
000000
060080
1D0280
580700
240A00
701900
A01D00
A04D00
A50D50
780B40
ENDCHAR
STARTCHAR uacute
ENCODING 250
SWIDTH 299 0
DWIDTH 11 0
BBX 10 14 1 0
BITMAP
0001E0
000380
000500
000000
000000
060080
1D0280
580700
240A00
701900
A01D00
A04D00
A50D50
780B40
ENDCHAR
STARTCHAR ucircumflex
ENCODING 251
SWIDTH 299 0
DWIDTH 11 0
BBX 10 14 1 0
BITMAP
000A00
0066D0
000000
000000
000000
060080
1D0280
580700
240A00
701900
A01D00
A04D00
A50D50
780B40
ENDCHAR
STARTCHAR udieresis
ENCODING 252
SWIDTH 299 0
DWIDTH 11 0
BBX 10 13 1 0
BITMAP
0075D0
006180
000000
000000
060080
1D0280
580700
240A00
701900
A01D00
A04D00
A50D50
780B40
ENDCHAR
STARTCHAR yacute
ENCODING 253
SWIDTH 280 0
DWIDTH 10 0
BBX 18 23 -7 -9
BITMAP
00000000E0
0000000290
0000000500
0000000000
0000000000
0000060080
00001D0280
0000180340
0000240B00
0000301A00
0000601D00
0000A05C00
0000A12800
0000783400
0000006000
0000009000
000000C000
2000024000
2000060000
6000080000
7000240000
2801900000
0BA9000000
ENDCHAR
STARTCHAR thorn
ENCODING 254
SWIDTH 261 0
DWIDTH 9 0
BBX 10 27 -1 -9
BITMAP
000040
0002D0
000580
000240
000300
000A00
000C00
001800
002400
0071D0
0090B0
00C070
018070
024060
0200D0
050180
0E0A00
0FE400
140000
240000
300000
600000
900000
900000
C00000
C00000
E40000
ENDCHAR
STARTCHAR ydieresis
ENCODING 255
SWIDTH 280 0
DWIDTH 10 0
BBX 17 22 -7 -9
BITMAP
00000071C0
000000A180
0000000000
0000000000
0000060080
00001D0280
0000180340
0000240B00
0000301A00
0000601D00
0000A05C00
0000A12800
0000783400
0000006000
0000009000
000000C000
2000024000
2000060000
6000080000
7000240000
2801900000
0BA9000000
ENDCHAR
STARTCHAR dotlessi
ENCODING 305
SWIDTH 149 0
DWIDTH 5 0
BBX 4 9 1 0
BITMAP
06
19
1C
28
30
70
A0
A5
B4
ENDCHAR
STARTCHAR Lslash
ENCODING 321
SWIDTH 657 0
DWIDTH 24 0
BBX 25 23 1 0
BITMAP
0000000000BE00
0000000007FF80
000000001902C0
000000006000C0
00000000800080
00000002400040
00000006000000
00000009000000
0000000C000000
00000029640000
0000007E000000
00001AB0000000
000050A0000000
00000090000000
000000C0000000
00000180000000
00000240000000
00000300000000
01400900000000
005A5800001000
9001F800001000
E4065B94018000
6FE4006FF90000
ENDCHAR
STARTCHAR lslash
ENCODING 322
SWIDTH 134 0
DWIDTH 5 0
BBX 16 27 1 0
BITMAP
0000006E
000001EB
00000A01
00001400
00005000
00008000
00020000
00050000
00080000
00140000
00214000
00A50000
09800000
01800000
02400000
02000000
09000000
0C000000
18000000
28000000
34000000
70000000
70000000
A0000000
A0000000
E1000000
A4000000
ENDCHAR
STARTCHAR OE
ENCODING 338
SWIDTH 827 0
DWIDTH 30 0
BBX 30 23 2 0
BITMAP
000006FF8016AE40
0000A405F49002D0
000500002F4000A0
001400000B000040
005000000A000040
014000000B000000
0200000007800000
0900000001E40000
0800000006FD0000
1800000065000000
2400000140000000
3400000900000000
7000001800000000
7000003400000000
7000007000000000
740000B000000000
740000B000000000
380000B000000400
2D0000B400000800
1F00007800001400
0BD0003D00007000
01F901AB4006D000
002BF901BAA50000
ENDCHAR
STARTCHAR oe
ENCODING 339
SWIDTH 345 0
DWIDTH 12 0
BBX 12 9 1 0
BITMAP
02E0B8
08350D
202C18
202950
902800
903400
D07800
A16C14
7D1F90
ENDCHAR
STARTCHAR Scaron
ENCODING 352
SWIDTH 480 0
DWIDTH 17 0
BBX 17 27 2 0
BITMAP
0000024040
000001E600
0000003400
0000000000
000006FD00
0000140740
00005001C0
0000800180
0000C00140
0000D00000
0000E00000
0000B40000
00003C0000
00001E0000
00000B4000
000003C000
000001D000
000000B000
0000007400
2000003400
9000002800
C000002400
D000003000
E000006000
B400008000
2E40060000
06FE900000
ENDCHAR
STARTCHAR scaron
ENCODING 353
SWIDTH 188 0
DWIDTH 7 0
BBX 7 15 0 0
BITMAP
0240
0054
0004
0000
0000
0000
02A4
0608
0A00
0740
02C0
00D0
40A0
C090
A640
ENDCHAR
STARTCHAR Ydieresis
ENCODING 376
SWIDTH 662 0
DWIDTH 24 0
BBX 32 32 0 -5
BITMAP
0000000000248000
0000000000318000
0000000000000000
0000000000000000
0000001F40000009
00000092C000002C
00000202C0000034
00000002800000B0
00000003800001D0
00000003400002C0
0000000700000740
0000000A00000F00
0000000D00002D00
0000001C00007C00
000000280000B400
000000340001E000
000000700006D000
0000007000178000
000500A000570000
009000B0014D0000
0600007418280000
1800002F90700000
3000000000D00000
7000000002800000
A000000007000000
A00000000C000000
A000000024000000
B000000090000000
7800000240000000
2D00001800000000
0B90069000000000
01BFE40000000000
ENDCHAR
STARTCHAR Zcaron
ENCODING 381
SWIDTH 625 0
DWIDTH 23 0
BBX 24 27 2 0
BITMAP
000000050100
000000029900
00000000A000
000000000000
000006FF9000
000024016E45
0000900001B8
0000400000A0
000100000240
000100000900
000000002400
000000009000
000000020000
000000180000
000000600000
000001800000
000006000000
000014000000
000050000000
000240000000
000900000140
002000000200
008000000500
020000001800
0FE95001A000
3FFFFFFF8000
9016BFF90000
ENDCHAR
STARTCHAR zcaron
ENCODING 382
SWIDTH 248 0
DWIDTH 9 0
BBX 11 15 -1 0
BITMAP
002804
000540
000040
000000
000000
000000
01FEA0
010680
000600
001400
005000
014000
050040
1E4140
66FD00
ENDCHAR
STARTCHAR florin
ENCODING 402
SWIDTH 214 0
DWIDTH 8 0
BBX 12 14 -3 -3
BITMAP
00002E
000082
000200
000600
000900
000D00
007FA4
001800
002400
003000
006000
008000
024000
A80000
ENDCHAR
STARTCHAR circumflex
ENCODING 710
SWIDTH 196 0
DWIDTH 7 0
BBX 5 3 1 11
BITMAP
1D00
5780
0040
ENDCHAR
STARTCHAR caron
ENCODING 711
SWIDTH 196 0
DWIDTH 7 0
BBX 4 3 1 12
BITMAP
90
21
01
ENDCHAR
STARTCHAR breve
ENCODING 728
SWIDTH 198 0
DWIDTH 7 0
BBX 6 3 1 12
BITMAP
8010
8000
1A00
ENDCHAR
STARTCHAR dotaccent
ENCODING 729
SWIDTH 89 0
DWIDTH 3 0
BBX 3 3 0 11
BITMAP
24
34
60
ENDCHAR
STARTCHAR ring
ENCODING 730
SWIDTH 117 0
DWIDTH 4 0
BBX 4 3 0 11
BITMAP
19
51
28
ENDCHAR
STARTCHAR ogonek
ENCODING 731
SWIDTH 124 0
DWIDTH 4 0
BBX 4 4 0 -4
BITMAP
04
20
60
35
ENDCHAR
STARTCHAR tilde
ENCODING 732
SWIDTH 222 0
DWIDTH 8 0
BBX 6 3 1 11
BITMAP
3920
4B90
4000
ENDCHAR
STARTCHAR hungarumlaut
ENCODING 733
SWIDTH 253 0
DWIDTH 9 0
BBX 8 3 1 11
BITMAP
0E2D
38B4
9140
ENDCHAR
STARTCHAR mu.dup2
ENCODING 956
SWIDTH 324 0
DWIDTH 12 0
BBX 12 15 -1 -6
BITMAP
001803
00340A
00601C
00D028
01C064
038074
078130
0A8475
0DD029
180000
240000
340000
700000
B00000
400000
ENDCHAR
STARTCHAR endash
ENCODING 8211
SWIDTH 500 0
DWIDTH 18 0
BBX 17 1 0 5
BITMAP
7FFFFFFFC0
ENDCHAR
STARTCHAR emdash
ENCODING 8212
SWIDTH 1000 0
DWIDTH 36 0
BBX 35 1 0 5
BITMAP
7FFFFFFFFFFFFFFFFC
ENDCHAR
STARTCHAR quoteleft
ENCODING 8216
SWIDTH 87 0
DWIDTH 3 0
BBX 3 6 2 9
BITMAP
04
20
50
D0
D0
40
ENDCHAR
STARTCHAR quoteright
ENCODING 8217
SWIDTH 87 0
DWIDTH 3 0
BBX 3 6 2 9
BITMAP
18
2C
18
24
50
40
ENDCHAR
STARTCHAR quotesinglbase
ENCODING 8218
SWIDTH 112 0
DWIDTH 4 0
BBX 3 5 0 -3
BITMAP
1C
18
14
10
40
ENDCHAR
STARTCHAR quotedblleft
ENCODING 8220
SWIDTH 167 0
DWIDTH 6 0
BBX 6 6 2 9
BITMAP
0410
2080
5140
9300
D340
8200
ENDCHAR
STARTCHAR quotedblright
ENCODING 8221
SWIDTH 167 0
DWIDTH 6 0
BBX 6 6 2 9
BITMAP
1860
2CA0
1860
2480
2140
4100
ENDCHAR
STARTCHAR quotedblbase
ENCODING 8222
SWIDTH 192 0
DWIDTH 7 0
BBX 6 5 0 -3
BITMAP
0860
1C70
1860
2080
4100
ENDCHAR
STARTCHAR dagger
ENCODING 8224
SWIDTH 185 0
DWIDTH 7 0
BBX 8 22 1 -3
BITMAP
0014
0030
0060
0090
00C0
0180
0240
BFE9
0200
0500
0800
0800
1800
1400
2000
2000
1000
5000
8000
8000
4000
4000
ENDCHAR
STARTCHAR daggerdbl
ENCODING 8225
SWIDTH 185 0
DWIDTH 7 0
BBX 10 22 -1 -3
BITMAP
000140
000300
000600
000900
000C00
001800
002400
0BFFE0
002000
005000
008000
008000
018000
014000
020000
BFF900
020000
050000
080000
080000
080000
040000
ENDCHAR
STARTCHAR bullet
ENCODING 8226
SWIDTH 207 0
DWIDTH 7 0
BBX 4 4 2 3
BITMAP
2E
BF
FF
B9
ENDCHAR
STARTCHAR ellipsis
ENCODING 8230
SWIDTH 376 0
DWIDTH 14 0
BBX 12 2 1 0
BITMAP
70280A
903418
ENDCHAR
STARTCHAR perthousand
ENCODING 8240
SWIDTH 571 0
DWIDTH 21 0
BBX 20 17 0 -3
BITMAP
0000004000
0000018000
0000020000
02A0080000
0424240000
2024600000
2024800000
70620A8069
7A8525C19A
2A1880D206
0020808906
0091808908
0141C60A14
0200B807D0
0800000000
1400000000
1000000000
ENDCHAR
STARTCHAR guilsinglleft
ENCODING 8249
SWIDTH 189 0
DWIDTH 7 0
BBX 6 9 1 0
BITMAP
0020
0180
0600
2400
9000
E000
3800
0E00
0600
ENDCHAR
STARTCHAR guilsinglright
ENCODING 8250
SWIDTH 176 0
DWIDTH 6 0
BBX 7 9 -1 0
BITMAP
0B00
0780
01D0
00B4
0024
0180
0500
2400
9000
ENDCHAR
STARTCHAR fraction
ENCODING 8260
SWIDTH 220 0
DWIDTH 8 0
BBX 13 15 -1 -2
BITMAP
00000040
00000200
00000800
00002400
00009000
00014000
00060000
00180000
00200000
00800000
02400000
05000000
18000000
60000000
40000000
ENDCHAR
STARTCHAR Euro
ENCODING 8364
SWIDTH 360 0
DWIDTH 13 0
BBX 11 11 0 0
BITMAP
00001C
004008
020004
060000
2FFE00
0D0000
6D0000
0D0000
0E0080
074240
01FE00
ENDCHAR
STARTCHAR trademark
ENCODING 8482
SWIDTH 389 0
DWIDTH 14 0
BBX 11 5 2 6
BITMAP
594208
080624
241254
205614
608518
ENDCHAR
STARTCHAR minus
ENCODING 8722
SWIDTH 301 0
DWIDTH 11 0
BBX 8 1 2 5
BITMAP
BFFE
ENDCHAR
STARTCHAR fi
ENCODING 64257
SWIDTH 297 0
DWIDTH 11 0
BBX 30 36 -11 -9
BITMAP
0000000000001B80
000000000001A5E0
0000000000050020
0000000000140000
0000000000200000
0000000000800000
0000000001400000
0000000002000000
0000000006000000
000000000C000000
0000000018000000
0000000024000000
0000000070010000
00000000A0040000
00000000D0140000
00000001C0200000
0000000280000000
0000000340000000
0000007FFED00000
0000004A00800000
0000000D02400000
0000001C07000000
0000002809000000
000000340D000000
000000701C000000
000000A01D400000
000000C01E000000
0000018000000000
0000030000000000
0000060000000000
0000080000000000
0000240000000000
0000500000000000
5001400000000000
6005000000000000
2E90000000000000
ENDCHAR
STARTCHAR fl
ENCODING 64258
SWIDTH 290 0
DWIDTH 10 0
BBX 34 36 -11 -9
BITMAP
0000000000000006D0
000000000000BF6AA0
00000000000656D010
000000000018010000
000000000020040000
000000000080040000
000000000140100000
000000000200400000
000000000900400000
000000000C01000000
000000001801000000
000000003404000000
000000007004000000
00000000A020000000
00000000D020000000
00000001C050000000
000000028080000000
000000034180000000
0000006FFF40000000
0000004A0200000000
0000000D0200000000
0000001C0600000000
000000280900000000
000000340D00000000
000000700D10000000
000000A01E80000000
000000C00E00000000
000001800000000000
000003000000000000
000006000000000000
000008000000000000
000024000000000000
000050000000000000
500140000000000000
600500000000000000
2E9000000000000000
ENDCHAR
STARTCHAR .notdef
ENCODING -1
SWIDTH 150 0
DWIDTH 5 0
BBX 1 1 0 0
BITMAP
00
ENDCHAR
STARTCHAR .null
ENCODING -1
SWIDTH 0 0
DWIDTH 0 0
BBX 1 1 0 0
BITMAP
00
ENDCHAR
STARTCHAR nonmarkingreturn
ENCODING -1
SWIDTH 150 0
DWIDTH 5 0
BBX 1 1 0 0
BITMAP
00
ENDCHAR
ENDFONT
